<?xml version="1.0" standalone="no"?>
<!DOCTYPE svg PUBLIC "-//W3C//DTD SVG 20010904//EN"
 "http://www.w3.org/TR/2001/REC-SVG-20010904/DTD/svg10.dtd">
<svg version="1.0" xmlns="http://www.w3.org/2000/svg"
 width="100.000000pt" height="100.000000pt" viewBox="0 0 100.000000 100.000000"
 preserveAspectRatio="xMidYMid meet">

<g transform="translate(0.000000,100.000000) scale(0.100000,-0.100000)"
fill="#000000" stroke="none">
<path d="M245 991 c-92 -24 -173 -90 -215 -176 -33 -69 -34 -199 -2 -265 53
-108 149 -176 265 -187 l64 -6 6 -63 c11 -113 69 -200 169 -255 58 -31 70 -34
148 -34 78 0 90 3 148 34 70 38 100 70 140 145 22 43 26 64 26 136 0 72 -4 93
-26 136 -39 75 -70 107 -137 143 -42 22 -80 33 -124 38 l-64 6 -6 64 c-11 116
-80 214 -186 264 -48 22 -157 33 -206 20z m165 -47 c107 -32 190 -149 190
-270 0 -42 -1 -43 -53 -67 -68 -31 -123 -86 -154 -154 -24 -52 -25 -53 -67
-53 -156 0 -286 127 -286 280 0 149 126 277 276 279 22 1 64 -6 94 -15z m360
-360 c105 -31 190 -149 190 -264 0 -150 -130 -280 -280 -280 -150 0 -280 130
-280 280 0 149 126 277 276 279 22 1 64 -6 94 -15z"/>
<path d="M271 815 c-16 -15 -36 -42 -43 -60 -6 -19 -17 -35 -24 -35 -6 0 -14
-7 -18 -15 -3 -9 0 -15 9 -15 21 0 19 -16 -2 -25 -16 -6 -15 -8 5 -16 12 -4
22 -15 22 -24 0 -29 30 -75 60 -90 55 -29 130 -14 130 26 0 19 -1 19 -22 5
-12 -9 -32 -16 -45 -16 -29 0 -71 38 -79 73 -6 27 -6 27 45 27 28 0 51 5 51
10 0 6 -22 10 -50 10 -38 0 -50 4 -50 15 0 12 13 15 60 15 33 0 60 4 60 10 0
6 -27 10 -60 10 -63 0 -69 5 -48 43 24 46 67 60 104 33 13 -10 23 -11 31 -4
19 15 16 23 -12 36 -43 20 -91 14 -124 -13z"/>
<path d="M670 500 c-6 -11 -18 -20 -26 -20 -28 0 -64 -50 -64 -90 0 -41 19
-65 63 -75 26 -7 27 -10 27 -66 0 -32 -3 -59 -8 -59 -18 0 -52 33 -52 51 0 13
-7 19 -21 19 -45 0 5 -91 57 -104 13 -4 24 -13 24 -21 0 -8 5 -15 10 -15 6 0
10 6 10 14 0 8 12 17 26 20 39 10 74 50 74 86 0 44 -16 70 -56 86 -33 14 -34
16 -34 69 0 53 1 55 20 45 11 -6 20 -17 20 -25 0 -8 9 -15 20 -15 27 0 25 26
-5 55 -13 14 -31 25 -40 25 -8 0 -15 6 -15 14 0 24 -18 28 -30 6z m0 -100 c0
-34 -4 -50 -13 -50 -36 0 -52 70 -19 89 29 17 32 13 32 -39z m68 -122 c27 -27
3 -88 -34 -88 -10 0 -14 13 -14 50 0 41 3 50 18 50 10 0 23 -5 30 -12z"/>
<path d="M750 935 l-55 -55 58 -57 c44 -45 59 -55 69 -45 9 9 5 19 -22 47
l-34 35 58 0 c105 0 136 -34 136 -150 0 -63 2 -70 20 -70 18 0 20 7 20 73 0
128 -44 179 -161 185 l-71 4 32 33 c28 29 34 55 12 55 -4 0 -32 -25 -62 -55z"/>
<path d="M0 288 c0 -129 44 -180 161 -186 l71 -4 -33 -34 c-26 -27 -30 -37
-21 -46 10 -10 25 0 70 45 l57 57 -57 57 c-45 45 -60 55 -70 45 -9 -9 -5 -19
22 -47 l34 -35 -58 0 c-105 0 -136 34 -136 150 0 63 -2 70 -20 70 -18 0 -20
-7 -20 -72z"/>
</g>
</svg>
