<?xml version="1.0" standalone="no"?>
<!DOCTYPE svg PUBLIC "-//W3C//DTD SVG 20010904//EN"
 "http://www.w3.org/TR/2001/REC-SVG-20010904/DTD/svg10.dtd">
<svg version="1.0" xmlns="http://www.w3.org/2000/svg"
 width="50.000000pt" height="50.000000pt" viewBox="0 0 50.000000 50.000000"
 preserveAspectRatio="xMidYMid meet">

<g transform="translate(0.000000,50.000000) scale(0.100000,-0.100000)"
fill="#000000" stroke="none">
<path d="M170 467 c-49 -16 -123 -93 -138 -143 -27 -91 -8 -169 58 -234 93
-94 227 -94 320 0 94 93 94 227 0 320 -65 65 -150 85 -240 57z m70 -57 c0 -45
-2 -50 -22 -50 -13 0 -29 4 -37 9 -21 13 21 79 57 90 1 1 2 -21 2 -49z m71 3
c24 -38 16 -53 -28 -53 -21 0 -23 5 -23 50 0 58 16 59 51 3z m-144 -2 c-16
-29 -26 -37 -39 -32 -28 10 -25 24 11 48 47 32 53 29 28 -16z m193 17 c36 -25
39 -39 12 -49 -13 -5 -23 3 -39 32 -25 45 -19 48 27 17z m-224 -102 c-3 -16
-6 -37 -6 -47 0 -16 -8 -19 -45 -19 -52 0 -56 10 -26 77 19 41 20 42 51 30 28
-11 31 -15 26 -41z m304 12 c31 -68 28 -78 -25 -78 -37 0 -45 3 -45 19 0 10
-3 32 -6 48 -6 28 -2 32 54 52 2 1 12 -18 22 -41z m-217 2 c13 0 17 -9 17 -40
l0 -40 -45 0 c-48 0 -50 3 -39 60 6 26 10 31 28 26 12 -3 29 -6 39 -6z m121
-21 c11 -56 9 -59 -39 -59 l-45 0 0 39 c0 41 -1 41 66 50 6 0 14 -13 18 -30z
m-214 -98 c0 -10 3 -31 6 -47 5 -26 2 -30 -26 -41 -31 -12 -32 -11 -51 30 -30
67 -26 77 26 77 37 0 45 -3 45 -19z m110 -20 c0 -37 -2 -39 -37 -44 -20 -4
-38 -5 -40 -4 -1 2 -5 22 -9 45 l-7 42 47 0 46 0 0 -39z m106 -3 c-4 -23 -8
-43 -9 -45 -2 -1 -20 0 -40 4 -35 5 -37 7 -37 44 l0 39 46 0 47 0 -7 -42z
m114 25 c0 -10 -9 -37 -19 -60 -19 -41 -20 -42 -51 -30 -28 11 -31 15 -26 41
3 16 6 37 6 47 0 16 8 19 45 19 36 0 45 -3 45 -17z m-220 -133 c0 -58 -16 -59
-51 -3 -24 38 -16 53 29 53 20 0 22 -5 22 -50z m79 41 c11 -7 10 -15 -8 -44
-35 -56 -51 -55 -51 3 0 45 2 50 23 50 12 0 28 -4 36 -9z m-135 -79 c-4 -6
-60 26 -73 42 -11 13 -10 17 10 25 21 7 27 4 45 -28 11 -20 20 -37 18 -39z
m209 53 c1 -10 -60 -55 -74 -55 -4 0 2 18 14 39 17 30 25 37 40 32 10 -4 19
-11 20 -16z"/>
</g>
</svg>
