<?xml version="1.0" standalone="no"?>
<!DOCTYPE svg PUBLIC "-//W3C//DTD SVG 20010904//EN"
 "http://www.w3.org/TR/2001/REC-SVG-20010904/DTD/svg10.dtd">
<svg version="1.0" xmlns="http://www.w3.org/2000/svg"
 width="30.000000pt" height="30.000000pt" viewBox="0 0 30.000000 30.000000"
 preserveAspectRatio="xMidYMid meet">

<g transform="translate(0.000000,30.000000) scale(0.100000,-0.100000)"
fill="#000000" stroke="none">
<path d="M105 261 c-45 -20 -70 -60 -70 -112 0 -42 5 -53 33 -81 28 -28 39
-33 82 -33 43 0 54 5 82 32 17 18 29 35 25 39 -4 4 -18 -5 -31 -19 -56 -60
-152 -39 -172 38 -26 102 99 166 172 88 13 -14 27 -23 31 -19 4 4 -7 20 -23
37 -33 33 -92 46 -129 30z"/>
<path d="M130 175 l-24 -26 27 -26 c27 -28 50 -26 27 2 -11 13 -5 15 49 15 34
0 61 4 61 10 0 6 -27 10 -62 10 -48 0 -59 3 -50 12 7 7 12 16 12 20 0 15 -17
8 -40 -17z"/>
</g>
</svg>
