<?xml version="1.0" standalone="no"?>
<!DOCTYPE svg PUBLIC "-//W3C//DTD SVG 20010904//EN"
 "http://www.w3.org/TR/2001/REC-SVG-20010904/DTD/svg10.dtd">
<svg version="1.0" xmlns="http://www.w3.org/2000/svg"
 width="96.000000pt" height="96.000000pt" viewBox="0 0 96.000000 96.000000"
 preserveAspectRatio="xMidYMid meet">

<g transform="translate(0.000000,96.000000) scale(0.100000,-0.100000)"
fill="#000000" stroke="none">
<path d="M260 873 c-151 -79 -160 -289 -16 -377 143 -89 322 4 334 172 8 119
-83 221 -206 230 -48 3 -66 -1 -112 -25z m180 -35 c132 -67 132 -249 0 -316
-56 -28 -104 -28 -160 1 -132 66 -132 248 0 315 24 12 60 22 80 22 20 0 56
-10 80 -22z"/>
<path d="M747 614 c-4 -4 -7 -31 -7 -60 l0 -53 -57 -3 c-44 -2 -58 -7 -58 -18
0 -11 14 -16 57 -18 l57 -3 3 -57 c2 -43 7 -57 18 -57 11 0 16 14 18 57 l3 57
57 3 c43 2 57 7 57 18 0 11 -14 16 -57 18 l-57 3 -3 56 c-3 52 -14 73 -31 57z"/>
<path d="M164 321 c-74 -33 -108 -101 -102 -201 2 -41 7 -55 18 -55 11 0 16
17 20 71 6 79 24 114 73 144 28 18 51 20 187 20 136 0 159 -2 187 -20 49 -29
66 -64 72 -144 5 -54 10 -71 21 -71 11 0 16 14 18 55 6 100 -28 168 -102 201
-60 27 -332 27 -392 0z"/>
</g>
</svg>
