<?xml version="1.0" encoding="iso-8859-1"?>
<!-- Generator: Adobe Illustrator 19.0.0, SVG Export Plug-In . SVG Version: 6.00 Build 0)  -->
<svg version="1.1" id="Layer_1" xmlns="http://www.w3.org/2000/svg" xmlns:xlink="http://www.w3.org/1999/xlink" x="0px" y="0px"
	 viewBox="0 0 478.53 478.53" style="enable-background:new 0 0 478.53 478.53;" xml:space="preserve">
<g>
	<g>
		<path d="M477.795,184.28c-1.764-5.431-6.458-9.389-12.108-10.209l-147.159-21.384l-65.812-133.35
			c-2.527-5.12-7.741-8.361-13.451-8.361s-10.924,3.241-13.451,8.361l-65.812,133.35L12.843,174.071
			c-5.65,0.82-10.343,4.778-12.108,10.209c-1.765,5.43-0.293,11.391,3.796,15.376l106.484,103.797L85.877,450.018
			c-0.965,5.627,1.349,11.315,5.968,14.671c4.618,3.355,10.741,3.799,15.797,1.142l131.623-69.199l131.623,69.199
			c2.196,1.154,4.592,1.723,6.979,1.723c3.11,0,6.205-0.966,8.818-2.865c4.619-3.357,6.933-9.044,5.968-14.671l-25.138-146.565
			l106.484-103.797C478.088,195.671,479.56,189.71,477.795,184.28z M340.927,287.476c-3.536,3.446-5.149,8.411-4.314,13.277
			l21.333,124.382l-111.701-58.726c-2.185-1.149-4.583-1.723-6.98-1.723c-2.397,0-4.795,0.574-6.981,1.722l-111.701,58.726
			l21.333-124.382c0.835-4.866-0.778-9.831-4.314-13.277l-90.367-88.087L172.12,181.24c4.886-0.71,9.109-3.778,11.294-8.205
			l55.851-113.166l55.851,113.167c2.185,4.427,6.408,7.495,11.294,8.205l124.884,18.148L340.927,287.476z"/>
	</g>
</g>
<g>
</g>
<g>
</g>
<g>
</g>
<g>
</g>
<g>
</g>
<g>
</g>
<g>
</g>
<g>
</g>
<g>
</g>
<g>
</g>
<g>
</g>
<g>
</g>
<g>
</g>
<g>
</g>
<g>
</g>
</svg>
